<?xml version="1.0" encoding="UTF-8"?>
<svg id="Layer_1" data-name="Layer 1" xmlns="http://www.w3.org/2000/svg" viewBox="0 0 137.42 59.21">
  <defs>
    <style>
      .cls-1 {
        letter-spacing: -.03em;
      }

      .cls-2 {
        font-family: Broadway, Broadway;
        font-size: 30px;
      }
    </style>
  </defs>
  <path d="m27.77,25.07c.3,10.62-8.33,19.24-18.94,19.53-3.16.09-6.16-.61-8.83-1.89,5.04,6.95,13.32,11.38,22.55,11.12,14.86-.41,26.58-12.8,26.17-27.66C48.3,11.31,35.92-.4,21.05.01,14.57.19,8.68,2.65,4.14,6.61c1.17-.26,2.38-.42,3.62-.45,10.62-.3,19.72,8.3,20.01,18.92Z"/>
  <text class="cls-2" transform="translate(48.8 51.77)"><tspan class="cls-1" x="0" y="0">r</tspan><tspan x="14.88" y="0">eam</tspan></text>
  <polygon points="73.01 19.93 68.66 22.76 68.53 27.94 64.49 24.68 59.52 26.15 61.38 21.31 58.44 17.03 63.62 17.3 66.78 13.19 68.12 18.2 73.01 19.93"/>
  <polygon points="103.78 9.33 100.26 13.14 101.4 18.2 96.69 16.03 92.23 18.67 92.84 13.52 88.95 10.1 94.03 9.09 96.09 4.33 98.62 8.85 103.78 9.33"/>
  <polygon points="132.33 22.15 127.98 24.98 127.84 30.16 123.81 26.9 118.84 28.37 120.7 23.53 117.76 19.25 122.94 19.52 126.1 15.41 127.44 20.42 132.33 22.15"/>
</svg>